<svg width="90" height="90" viewBox="0 0 90 90" fill="none" xmlns="http://www.w3.org/2000/svg">
<g clip-path="url(#clip0_4031_14)">
<path d="M78.75 0H11.25C5.0368 0 0 5.0368 0 11.25V78.75C0 84.9632 5.0368 90 11.25 90H78.75C84.9632 90 90 84.9632 90 78.75V11.25C90 5.0368 84.9632 0 78.75 0Z" fill="#F4DCA4"/>
<path d="M14.0058 25.7286C14.0058 25.2702 14.1753 24.8305 14.4772 24.5063C14.7791 24.1821 15.1885 24 15.6154 24H22.0538C22.2868 24.0078 22.5153 24.0697 22.7238 24.1817C22.9322 24.2936 23.1155 24.4528 23.2611 24.6482L31.7115 36.7487C31.7871 36.8407 31.8799 36.9144 31.984 36.9648C32.0881 37.0153 32.201 37.0414 32.3151 37.0414C32.4293 37.0414 32.5422 37.0153 32.6463 36.9648C32.7503 36.9144 32.8432 36.8407 32.9187 36.7487L41.3692 24.6482C41.5148 24.4528 41.6981 24.2936 41.9065 24.1817C42.1149 24.0697 42.3435 24.0078 42.5764 24H49.0149C49.314 24.0097 49.6046 24.1088 49.8541 24.286C50.1037 24.4633 50.3023 24.7117 50.4277 25.0035C50.553 25.2952 50.6002 25.6187 50.5639 25.9376C50.5276 26.2566 50.4092 26.5583 50.2221 26.809L37.5464 44.9598C37.4321 45.1131 37.3698 45.3036 37.3698 45.5C37.3698 45.6964 37.4321 45.8869 37.5464 46.0402L50.2221 64.191C50.4092 64.4417 50.5276 64.7434 50.5639 65.0624C50.6002 65.3813 50.553 65.7048 50.4277 65.9966C50.3023 66.2883 50.1037 66.5367 49.8541 66.714C49.6046 66.8912 49.314 66.9903 49.0149 67H42.5764C42.3435 66.9922 42.1149 66.9303 41.9065 66.8183C41.6981 66.7064 41.5148 66.5472 41.3692 66.3518L32.9187 54.2513C32.8432 54.1593 32.7503 54.0856 32.6463 54.0352C32.5422 53.9847 32.4293 53.9586 32.3151 53.9586C32.201 53.9586 32.0881 53.9847 31.984 54.0352C31.8799 54.0856 31.7871 54.1593 31.7115 54.2513L23.2611 66.3518C23.1155 66.5472 22.9322 66.7064 22.7238 66.8183C22.5153 66.9303 22.2868 66.9922 22.0538 67H15.6154C15.3163 66.9903 15.0257 66.8912 14.7762 66.714C14.5266 66.5367 14.328 66.2883 14.2026 65.9966C14.0772 65.7048 14.0301 65.3813 14.0664 65.0624C14.1027 64.7434 14.221 64.4417 14.4082 64.191L27.0839 46.0402C27.1982 45.8869 27.2604 45.6964 27.2604 45.5C27.2604 45.3036 27.1982 45.1131 27.0839 44.9598L14.4082 26.809C14.2626 26.6337 14.1518 26.4282 14.0826 26.2053C14.0134 25.9824 13.9873 25.7467 14.0058 25.5126V25.7286ZM62.2942 25.7286C66.9901 25.7286 71.4936 27.732 74.8141 31.298C78.1346 34.864 80 39.7006 80 44.7437C80 49.7868 78.1346 54.6234 74.8141 58.1894C71.4936 61.7554 66.9901 63.7588 62.2942 63.7588C57.5984 63.7588 53.0948 61.7554 49.7744 58.1894C46.4539 54.6234 44.5885 49.7868 44.5885 44.7437C44.5885 39.7006 46.4539 34.864 49.7744 31.298C53.0948 27.732 57.5984 25.7286 62.2942 25.7286ZM62.2942 34.3719C60.1597 34.3719 58.1127 35.2825 56.6034 36.9034C55.0941 38.5243 54.2462 40.7228 54.2462 43.0151C54.2462 45.3074 55.0941 47.5058 56.6034 49.1268C58.1127 50.7477 60.1598 51.6583 62.2942 51.6583C63.3511 51.6583 64.3977 51.4347 65.3741 51.0004C66.3505 50.566 67.2378 49.9293 67.9851 49.1267C68.7324 48.3241 69.3252 47.3713 69.7297 46.3227C70.1341 45.274 70.3423 44.1501 70.3423 43.0151C70.3423 41.88 70.1341 40.7561 69.7297 39.7074C69.3252 38.6588 68.7324 37.706 67.9851 36.9034C67.2377 36.1008 66.3505 35.4641 65.3741 35.0298C64.3977 34.5954 63.3511 34.3719 62.2942 34.3719Z" fill="white"/>
</g>
<defs>
<clipPath id="clip0_4031_14">
<rect width="90" height="90" fill="white"/>
</clipPath>
</defs>
</svg>
